<svg width="139" height="32" viewBox="0 0 139 32" fill="none" xmlns="http://www.w3.org/2000/svg">
<path fill-rule="evenodd" clip-rule="evenodd" d="M14.0583 0.617634C13.5205 1.21194 13.5107 1.63689 13.8811 8.14947C14.0974 11.9455 14.2245 16.334 14.1643 17.9015L14.0545 20.7516L13.0036 17.1087C12.4258 15.1051 11.5521 11.4257 11.0621 8.93184C10.1389 4.23356 9.71716 3.38967 8.37792 3.5587C7.74778 3.6383 6.6115 4.94107 6.49416 5.71899C6.45643 5.96794 6.32259 6.33676 6.19638 6.53846C5.94235 6.94502 4.89393 12.9486 4.51622 16.1615L4.27393 18.2228L3.85754 16.7957C3.62857 16.0108 3.25848 13.8134 3.03554 11.9122C2.72634 9.27624 2.49928 8.37337 2.07908 8.10825C1.25676 7.58974 0.483276 8.22749 0.161389 9.68977C-0.219484 11.4194 0.115723 16.9241 0.728735 19.0156C1.01003 19.9749 1.25739 20.9536 1.27832 21.1905C1.29925 21.4274 1.89927 22.7831 2.61154 24.2032C4.11949 27.2099 5.42924 28.2273 7.00411 27.614C8.41914 27.0631 8.57866 26.1193 8.18034 20.6587C7.9777 17.8806 7.92854 14.7233 8.06649 13.3485L8.30942 10.9288L8.87295 14.4172C10.2664 23.0416 11.7741 28.441 13.2338 30.0359C14.5033 31.4227 16.2335 31.482 17.4799 30.1811C19.1584 28.429 20.5177 19.7726 20.0794 13.6244C19.6852 8.09493 18.2771 1.81671 17.145 0.542794C16.4733 -0.212927 14.7728 -0.171703 14.0583 0.617634ZM21.6777 4.3899C21.5734 4.71782 21.7748 6.03803 22.1246 7.32336C23.5767 12.6575 23.5742 17.6091 22.1157 23.326C21.3983 26.1393 21.5379 26.9591 22.7103 26.8189C23.4058 26.7358 25.1351 23.3039 25.8432 20.6013C26.501 18.0906 26.5675 12.9131 25.9736 10.4531C25.4636 8.34166 24.4624 5.84838 23.649 4.66549C22.9583 3.6605 21.9536 3.52001 21.6777 4.3899ZM29.1807 8.50498C28.8639 8.70604 28.764 10.2898 28.7529 15.2982C28.745 18.89 28.8325 21.9808 28.947 22.1666C29.3053 22.7463 30.3474 22.5361 30.7384 21.8051C32.0038 19.4406 32.3723 13.8274 31.4644 10.7487C30.7508 8.32897 30.2437 7.83076 29.1807 8.50498Z" fill="white"/>
<path d="M39.6975 22.5586L35.9833 8.35116H39.0277L41.4227 19.3518L44.3048 8.35116H47.4304L50.211 19.3518L52.6466 8.35116H55.7113L51.8956 22.5586H48.5061L45.827 12.3495L43.0667 22.5586H39.6975ZM57.7788 22.8021C56.9399 22.8021 56.2363 22.6668 55.668 22.3962C55.1132 22.1121 54.7006 21.74 54.4299 21.2799C54.1728 20.8063 54.0443 20.2854 54.0443 19.7171C54.0443 19.1082 54.1999 18.567 54.5111 18.0934C54.8223 17.6198 55.3027 17.2477 55.9522 16.9771C56.6016 16.7065 57.4135 16.5712 58.3877 16.5712H60.9045C60.9045 16.0841 60.8368 15.6849 60.7015 15.3737C60.5797 15.049 60.3768 14.8054 60.0926 14.643C59.822 14.4807 59.4567 14.3995 58.9966 14.3995C58.496 14.3995 58.0697 14.5077 57.7179 14.7242C57.3797 14.9407 57.1699 15.2654 57.0888 15.6984H54.3285C54.4096 14.9678 54.6532 14.3386 55.0591 13.8109C55.465 13.2696 56.0063 12.8502 56.6828 12.5525C57.3729 12.2413 58.1509 12.0857 59.0169 12.0857C59.9776 12.0857 60.8097 12.2481 61.5134 12.5728C62.2305 12.8975 62.7785 13.3644 63.1574 13.9732C63.5498 14.5821 63.7459 15.3331 63.7459 16.2261V22.5586H61.351L61.0262 21.0161C60.8909 21.2867 60.715 21.5302 60.4985 21.7467C60.2956 21.9632 60.0588 22.1527 59.7882 22.315C59.5175 22.4639 59.2131 22.5789 58.8748 22.6601C58.5501 22.7548 58.1848 22.8021 57.7788 22.8021ZM58.4689 20.6101C58.8072 20.6101 59.1116 20.556 59.3822 20.4478C59.6529 20.326 59.8829 20.1569 60.0723 19.9404C60.2617 19.7239 60.4174 19.4803 60.5391 19.2097C60.6609 18.9256 60.7421 18.6211 60.7827 18.2964V18.2761H58.7328C58.3404 18.2761 58.0156 18.3302 57.7585 18.4384C57.515 18.5332 57.3323 18.6752 57.2105 18.8647C57.0888 19.0406 57.0279 19.2435 57.0279 19.4736C57.0279 19.7171 57.0888 19.9268 57.2105 20.1027C57.3323 20.2786 57.5014 20.4072 57.7179 20.4884C57.9344 20.5696 58.1848 20.6101 58.4689 20.6101ZM64.2705 22.5586V7.94524H67.112V22.5586H64.2705ZM67.751 22.5586V7.94524H70.5925V22.5586H67.751ZM76.1635 22.8021C75.1351 22.8021 74.2218 22.5857 73.4235 22.1527C72.6387 21.7061 72.023 21.0905 71.5765 20.3057C71.13 19.5074 70.9067 18.5873 70.9067 17.5454C70.9067 16.49 71.1232 15.5564 71.5562 14.7445C72.0027 13.9191 72.6184 13.2696 73.4032 12.7961C74.2015 12.3225 75.1284 12.0857 76.1838 12.0857C77.1986 12.0857 78.0849 12.3089 78.8426 12.7555C79.6139 13.202 80.2092 13.8041 80.6287 14.5618C81.0617 15.3196 81.2782 16.1923 81.2782 17.1801C81.2782 17.3154 81.2714 17.4642 81.2579 17.6266C81.2579 17.789 81.2443 17.9649 81.2173 18.1543H72.9364V16.4291H78.3961C78.3555 15.8067 78.1255 15.3128 77.706 14.9475C77.3001 14.5686 76.7927 14.3792 76.1838 14.3792C75.7237 14.3792 75.3043 14.4874 74.9254 14.7039C74.5466 14.9204 74.2489 15.2384 74.0324 15.6578C73.8159 16.0773 73.7076 16.6118 73.7076 17.2613V17.8498C73.7076 18.3776 73.8091 18.8444 74.0121 19.2503C74.215 19.6427 74.4992 19.9471 74.8645 20.1636C75.2299 20.3801 75.6561 20.4884 76.1432 20.4884C76.6303 20.4884 77.0295 20.3869 77.3407 20.1839C77.6654 19.981 77.909 19.7171 78.0713 19.3924H80.9737C80.7843 20.0283 80.4596 20.6034 79.9995 21.1176C79.553 21.6317 79.005 22.0444 78.3555 22.3556C77.706 22.6533 76.9753 22.8021 76.1635 22.8021ZM86.0399 22.5586C85.3092 22.5586 84.6665 22.4436 84.1117 22.2136C83.5705 21.9835 83.151 21.6047 82.8534 21.077C82.5557 20.5493 82.4068 19.8321 82.4068 18.9256V14.7039H80.6411V12.3292H82.4068L82.7113 9.50806H85.2483V12.3292H87.9071V14.7039H85.2483V18.9458C85.2483 19.3924 85.343 19.7036 85.5325 19.8795C85.7354 20.0554 86.0737 20.1433 86.5473 20.1433H87.8868V22.5586H86.0399ZM93.792 22.5586L90.0777 8.35116H93.1222L95.5171 19.3518L98.3992 8.35116H101.525L104.305 19.3518L106.741 8.35116H109.806L105.99 22.5586H102.601L99.9215 12.3495L97.1612 22.5586H93.792ZM111.873 22.8021C111.034 22.8021 110.331 22.6668 109.762 22.3962C109.208 22.1121 108.795 21.74 108.524 21.2799C108.267 20.8063 108.139 20.2854 108.139 19.7171C108.139 19.1082 108.294 18.567 108.606 18.0934C108.917 17.6198 109.397 17.2477 110.047 16.9771C110.696 16.7065 111.508 16.5712 112.482 16.5712H114.999C114.999 16.0841 114.931 15.6849 114.796 15.3737C114.674 15.049 114.471 14.8054 114.187 14.643C113.916 14.4807 113.551 14.3995 113.091 14.3995C112.59 14.3995 112.164 14.5077 111.812 14.7242C111.474 14.9407 111.264 15.2654 111.183 15.6984H108.423C108.504 14.9678 108.748 14.3386 109.154 13.8109C109.56 13.2696 110.101 12.8502 110.777 12.5525C111.467 12.2413 112.245 12.0857 113.111 12.0857C114.072 12.0857 114.904 12.2481 115.608 12.5728C116.325 12.8975 116.873 13.3644 117.252 13.9732C117.644 14.5821 117.84 15.3331 117.84 16.2261V22.5586H115.445L115.121 21.0161C114.985 21.2867 114.809 21.5302 114.593 21.7467C114.39 21.9632 114.153 22.1527 113.883 22.315C113.612 22.4639 113.308 22.5789 112.969 22.6601C112.645 22.7548 112.279 22.8021 111.873 22.8021ZM112.563 20.6101C112.902 20.6101 113.206 20.556 113.477 20.4478C113.747 20.326 113.977 20.1569 114.167 19.9404C114.356 19.7239 114.512 19.4803 114.634 19.2097C114.755 18.9256 114.837 18.6211 114.877 18.2964V18.2761H112.827C112.435 18.2761 112.11 18.3302 111.853 18.4384C111.609 18.5332 111.427 18.6752 111.305 18.8647C111.183 19.0406 111.122 19.2435 111.122 19.4736C111.122 19.7171 111.183 19.9268 111.305 20.1027C111.427 20.2786 111.596 20.4072 111.812 20.4884C112.029 20.5696 112.279 20.6101 112.563 20.6101ZM120.787 22.5586L117.073 12.3292H120.056L122.532 19.8795L125.029 12.3292H127.972L124.258 22.5586H120.787ZM132.07 22.8021C131.041 22.8021 130.128 22.5857 129.33 22.1527C128.545 21.7061 127.929 21.0905 127.483 20.3057C127.036 19.5074 126.813 18.5873 126.813 17.5454C126.813 16.49 127.029 15.5564 127.462 14.7445C127.909 13.9191 128.524 13.2696 129.309 12.7961C130.108 12.3225 131.034 12.0857 132.09 12.0857C133.105 12.0857 133.991 12.3089 134.749 12.7555C135.52 13.202 136.115 13.8041 136.535 14.5618C136.968 15.3196 137.184 16.1923 137.184 17.1801C137.184 17.3154 137.177 17.4642 137.164 17.6266C137.164 17.789 137.15 17.9649 137.123 18.1543H128.842V16.4291H134.302C134.262 15.8067 134.032 15.3128 133.612 14.9475C133.206 14.5686 132.699 14.3792 132.09 14.3792C131.63 14.3792 131.21 14.4874 130.831 14.7039C130.453 14.9204 130.155 15.2384 129.938 15.6578C129.722 16.0773 129.614 16.6118 129.614 17.2613V17.8498C129.614 18.3776 129.715 18.8444 129.918 19.2503C130.121 19.6427 130.405 19.9471 130.771 20.1636C131.136 20.3801 131.562 20.4884 132.049 20.4884C132.536 20.4884 132.936 20.3869 133.247 20.1839C133.571 19.981 133.815 19.7171 133.977 19.3924H136.88C136.69 20.0283 136.366 20.6034 135.906 21.1176C135.459 21.6317 134.911 22.0444 134.262 22.3556C133.612 22.6533 132.881 22.8021 132.07 22.8021Z" fill="white"/>
</svg>
