<svg width="147" height="31" viewBox="0 0 147 31" fill="none" xmlns="http://www.w3.org/2000/svg">
<g clip-path="url(#clip0_208_397)">
<path d="M85.5359 9.81476L86.9214 21.037H85.4735L84.4297 12.4862L80.8612 19.817H79.5749L75.9733 12.4862L74.948 21.037H73.5L74.8671 9.81476H76.2049L80.2144 18.1377L84.2055 9.81476H85.5433H85.5359ZM95.6645 17.208C95.6645 17.4212 95.6498 17.6306 95.6314 17.8437H89.4426C89.6557 19.196 90.6333 19.8978 91.9343 19.8978C93.2352 19.8978 93.7093 19.4753 94.1503 18.7073L95.3705 19.196C94.72 20.5152 93.3492 21.2317 91.8828 21.2317C89.7182 21.2317 87.9725 19.6186 87.9725 17.208C87.9725 14.7975 89.7145 13.2321 91.8828 13.2321C94.0511 13.2321 95.6608 14.7975 95.6608 17.208H95.6645ZM89.4573 16.6238H94.2459C94.0658 15.3193 93.1397 14.5697 91.8828 14.5697C90.6259 14.5697 89.6851 15.2532 89.4536 16.6238H89.4573ZM100.674 13.2358C101.21 13.2358 101.765 13.3828 101.993 13.5298L101.765 14.8636C101.357 14.6689 100.949 14.6027 100.659 14.6027C99.1448 14.6027 98.5421 16.249 98.5421 18.2516V21.037H97.1088V13.4306H98.5421V15.1576C98.9316 13.8201 99.6667 13.2358 100.677 13.2358H100.674ZM106.216 21.2317C104.033 21.2317 102.125 19.6369 102.125 17.2227C102.125 14.8085 104.033 13.2321 106.216 13.2321C108.399 13.2321 108.446 13.7062 109.115 14.4374L108.219 15.3671C107.745 14.8783 107.061 14.5697 106.263 14.5697C104.764 14.5697 103.559 15.661 103.559 17.2264C103.559 18.7918 104.764 19.8978 106.263 19.8978C107.763 19.8978 107.745 19.5892 108.219 19.1004L109.115 20.0301C108.446 20.7797 107.406 21.2354 106.216 21.2354V21.2317ZM114.36 13.2358C116.249 13.2358 117.439 14.5072 117.421 16.6385V21.037H116.002V16.7193C116.002 15.4479 115.22 14.6358 114.161 14.6358C113.103 14.6358 111.831 15.2715 111.831 16.9177V21.0406H110.413V9.29297H111.831V14.5881C112.287 13.6584 113.525 13.2358 114.356 13.2358H114.36ZM125.293 14.6211V13.4306H126.712V21.037H125.293V19.6847C124.786 20.596 123.727 21.2317 122.507 21.2317C120.519 21.2317 118.777 19.5524 118.777 17.2227C118.777 14.893 120.424 13.2321 122.574 13.2321C124.723 13.2321 124.79 13.7208 125.293 14.6174V14.6211ZM122.721 19.8978C124.073 19.8978 125.297 18.7734 125.297 17.2264C125.297 15.6794 123.977 14.5697 122.706 14.5697C121.434 14.5697 120.214 15.7896 120.214 17.2264C120.214 18.6632 121.32 19.8978 122.724 19.8978H122.721ZM132.647 13.2358C134.536 13.2358 135.727 14.5072 135.708 16.6385V21.037H134.29V16.7193C134.29 15.4479 133.507 14.6358 132.448 14.6358C131.39 14.6358 130.118 15.2715 130.118 16.9177V21.0406H128.7V13.4342H130.118V14.5917C130.574 13.6621 131.813 13.2395 132.643 13.2395L132.647 13.2358ZM139.494 13.4306H141.14V14.6505H139.494V21.037H138.075V14.6505H136.708V13.4306H138.075V10.5644H139.494V13.4306Z" fill="white"/>
<path d="M40.6318 9.82985C43.1088 9.82985 44.1672 11.6377 44.1672 13.4273C44.1672 15.2168 43.1088 17.0247 40.6318 17.0247H38.0739V21.0447H36.0894V9.82617H40.6318V9.82985ZM40.5325 15.2352C41.7049 15.2352 42.1753 14.3386 42.1753 13.4273C42.1753 12.516 41.7196 11.6047 40.5803 11.6047H38.0739V15.2352H40.5362H40.5325Z" fill="white"/>
<path d="M51.2638 13.443H53.1528V21.0458H51.2638V19.8589C50.7567 20.6893 49.7497 21.2442 48.6582 21.2442C46.6222 21.2442 44.9941 19.6016 44.9941 17.2389C44.9941 14.8761 46.5561 13.252 48.706 13.252C50.8559 13.252 50.7567 13.7076 51.2638 14.505V13.4467V13.443ZM51.2344 17.2389C51.2344 15.9344 50.1613 15.0084 49.0367 15.0084C47.9122 15.0084 46.8868 16.0189 46.8868 17.2389C46.8868 18.4588 47.8129 19.4841 49.0514 19.4841C50.2899 19.4841 51.2344 18.5066 51.2344 17.2389Z" fill="white"/>
<path d="M60.4181 13.4453H62.4541L57.7316 24.7594H55.7471L57.456 20.5115L54.4277 13.4453H56.4968L58.4667 18.2627L60.4218 13.4453H60.4181Z" fill="white"/>
<path d="M14.9286 17.984C14.9286 19.5604 13.8518 21.247 11.3307 21.247H6.45752V9.83008H10.9816C13.0176 9.83008 14.3296 11.0574 14.3296 12.7808C14.3296 14.5042 13.9988 14.7687 12.753 15.1509C14.212 15.4008 14.9249 16.6942 14.9249 17.984H14.9286ZM10.8529 11.8695H8.76548V14.3719H10.8529C11.5806 14.3719 12.029 13.8905 12.029 13.1115C12.029 12.3325 11.6651 11.8695 10.8529 11.8695ZM10.9999 19.2076C12.0767 19.2076 12.6059 18.5095 12.6059 17.7488C12.6059 16.9882 12.1245 16.29 11.0293 16.29H8.75813V19.2076H10.9963H10.9999Z" fill="white"/>
<path d="M25.0053 21.247H22.0211L18.3424 16.6575V21.247H16.0381V9.83008H18.3424V14.5005L21.525 9.83008H24.2923L22.7562 12.0312L21.6867 13.5561L20.3343 15.4963L21.8484 17.3593L23.0134 18.7887L25.009 21.2434L25.0053 21.247Z" fill="white"/>
<path d="M29.0884 16.6418C29.0957 16.5756 29.0994 16.5095 29.1068 16.4434C29.1031 16.5095 29.0957 16.5756 29.0921 16.6418H29.0884Z" fill="white"/>
<path d="M29.1104 14.9745C29.1104 14.9414 29.1067 14.912 29.103 14.8789C29.103 14.9083 29.1067 14.9414 29.1104 14.9745Z" fill="white"/>
<path d="M0.411621 18.9802C2.02131 25.7782 8.14034 30.8528 15.428 30.8528C22.7158 30.8528 29.5919 25.1241 30.6907 17.6867C30.7275 17.4663 30.7532 17.2421 30.7752 17.018C30.8046 16.7277 30.8267 16.4374 30.8377 16.1434C30.8487 15.9082 30.8561 15.6694 30.8561 15.4305C30.8561 14.9345 30.834 14.4421 30.7899 13.957L27.056 17.6904H28.6915C27.6183 24.0475 22.0873 28.8832 15.428 28.8832C8.76878 28.8832 4.00586 24.6905 2.44762 18.9839H0.411621V18.9802Z" fill="white"/>
<path d="M0 15.4186C0 15.5435 0 15.6648 0.00367509 15.7897C0.00367509 15.911 0.0110253 16.0359 0.0183755 16.1572C0.0183755 16.2049 0.0220506 16.2527 0.0257256 16.3005C0.0330758 16.3997 0.0367509 16.4989 0.0441011 16.5981C0.0514513 16.6973 0.0624766 16.7929 0.0698267 16.8921L3.80005 13.1587H2.16095C3.24143 6.80901 8.76877 1.97325 15.428 1.97325C22.0873 1.97325 26.8502 6.16596 28.4085 11.8726H30.4445C28.8311 5.07461 22.7121 0 15.428 0C8.144 0 1.26791 5.72501 0.165379 13.1587C0.150679 13.2616 0.135978 13.3608 0.124953 13.4637C0.110253 13.585 0.0955524 13.7062 0.080852 13.8275C0.080852 13.8532 0.0771769 13.8789 0.0735018 13.901C0.0624766 14.0112 0.0514513 14.1251 0.0441011 14.239C0.0441011 14.2501 0.0441011 14.2648 0.0441011 14.2758C0.040426 14.3235 0.0367509 14.3713 0.0330758 14.4191C0.0294007 14.4852 0.0257256 14.5514 0.0220506 14.6175C0.0147004 14.7167 0.0110253 14.8196 0.00735018 14.9188C0 15.0842 0 15.2495 0 15.4149L0 15.4186Z" fill="white"/>
<path d="M0.069671 16.8877C0.0623208 16.7885 0.0512955 16.693 0.0439453 16.5938C0.0512955 16.693 0.0586457 16.7922 0.069671 16.8914V16.8877Z" fill="white"/>
<path d="M0.0332031 14.4188C0.0332031 14.371 0.0405608 14.3232 0.0442396 14.2754C0.0442396 14.3232 0.036882 14.371 0.036882 14.4188H0.0332031Z" fill="white"/>
<path d="M67.5864 5.91406V24.4487" stroke="white" stroke-width="1.36111"/>
</g>
<defs>
<clipPath id="clip0_208_397">
<rect width="147" height="30.8561" fill="white"/>
</clipPath>
</defs>
</svg>
