<svg width="149" height="89" viewBox="0 0 149 89" fill="none" xmlns="http://www.w3.org/2000/svg">
<path fill-rule="evenodd" clip-rule="evenodd" d="M71.7168 1.47482C70.9394 2.33388 70.9252 2.94815 71.4606 12.3621C71.7732 17.8493 71.957 24.1928 71.8699 26.4587L71.7113 30.5784L70.1922 25.3127C69.3569 22.4164 68.094 17.0979 67.3858 13.493C66.0513 6.70163 65.4416 5.4818 63.5058 5.72613C62.5949 5.84119 60.9524 7.72434 60.7828 8.84882C60.7283 9.20867 60.5348 9.74181 60.3524 10.0334C59.9852 10.621 58.4697 19.2992 57.9237 23.9434L57.5735 26.9231L56.9716 24.8602C56.6406 23.7256 56.1056 20.5493 55.7834 17.8011C55.3364 13.9908 55.0082 12.6857 54.4008 12.3025C53.2122 11.553 52.0941 12.4748 51.6288 14.5886C51.0782 17.0888 51.5628 25.0459 52.4489 28.0691C52.8555 29.4558 53.2131 30.8704 53.2433 31.2129C53.2736 31.5553 54.1409 33.515 55.1705 35.5678C57.3502 39.914 59.2435 41.3845 61.5199 40.498C63.5654 39.7017 63.7959 38.3375 63.2202 30.4441C62.9273 26.4284 62.8562 21.8645 63.0556 19.8773L63.4068 16.3796L64.2213 21.4221C66.2356 33.8886 68.4149 41.6935 70.525 43.9989C72.36 46.0035 74.8611 46.0892 76.6626 44.2088C79.089 41.6761 81.0537 29.1633 80.4202 20.2761C79.8504 12.2832 77.8151 3.20808 76.1785 1.36664C75.2076 0.274245 72.7496 0.333835 71.7168 1.47482ZM82.7306 6.92763C82.5798 7.40163 82.8709 9.30999 83.3765 11.1679C85.4756 18.8784 85.4719 26.036 83.3637 34.2998C82.3268 38.3664 82.5285 39.5514 84.2232 39.3488C85.2285 39.2286 87.7282 34.2677 88.7518 30.3611C89.7026 26.7319 89.7989 19.2479 88.9402 15.692C88.2031 12.6399 86.7559 9.03586 85.5801 7.32598C84.5817 5.87328 83.1294 5.67021 82.7306 6.92763ZM93.5762 12.876C93.1182 13.1666 92.9738 15.4559 92.9578 22.6956C92.9463 27.8876 93.0728 32.3552 93.2383 32.6238C93.7563 33.4618 95.2627 33.1579 95.8279 32.1013C97.6569 28.6834 98.1896 20.5695 96.8772 16.1192C95.8458 12.6215 95.1127 11.9014 93.5762 12.876Z" fill="#06509F"/>
<path d="M6.13171 79.6055L0.762796 59.0687H5.16354L8.62546 74.97L12.7915 59.0687H17.3096L21.3289 74.97L24.8495 59.0687H29.2796L23.764 79.6055H18.8645L14.9919 64.8483L11.0019 79.6055H6.13171ZM32.2682 79.9575C31.0556 79.9575 30.0385 79.7619 29.2171 79.3708C28.4151 78.96 27.8186 78.4222 27.4274 77.7572C27.0558 77.0726 26.87 76.3196 26.87 75.4981C26.87 74.618 27.0949 73.8356 27.5448 73.151C27.9946 72.4665 28.689 71.9286 29.6278 71.5374C30.5666 71.1463 31.7401 70.9507 33.1484 70.9507H36.7863C36.7863 70.2465 36.6885 69.6696 36.493 69.2197C36.3169 68.7503 36.0235 68.3982 35.6128 68.1635C35.2216 67.9288 34.6935 67.8115 34.0285 67.8115C33.3049 67.8115 32.6888 67.9679 32.1802 68.2809C31.6913 68.5938 31.3881 69.0632 31.2707 69.6891H27.2807C27.3981 68.6329 27.7501 67.7235 28.3369 66.9607C28.9237 66.1783 29.706 65.572 30.684 65.1417C31.6815 64.6918 32.8061 64.4669 34.0579 64.4669C35.4466 64.4669 36.6494 64.7016 37.6665 65.171C38.7031 65.6404 39.4952 66.3152 40.0429 67.1954C40.6101 68.0755 40.8937 69.161 40.8937 70.4519V79.6055H37.4318L36.9624 77.3758C36.7668 77.7669 36.5125 78.119 36.1996 78.4319C35.9062 78.7449 35.5639 79.0187 35.1727 79.2534C34.7816 79.4686 34.3415 79.6348 33.8525 79.7522C33.3831 79.8891 32.855 79.9575 32.2682 79.9575ZM33.2657 76.789C33.7547 76.789 34.1948 76.7108 34.586 76.5543C34.9771 76.3783 35.3096 76.1338 35.5835 75.8208C35.8573 75.5079 36.0822 75.1558 36.2582 74.7646C36.4343 74.3539 36.5516 73.9138 36.6103 73.4444V73.4151H33.6471C33.0799 73.4151 32.6105 73.4933 32.2389 73.6498C31.8868 73.7867 31.6228 73.9921 31.4468 74.2659C31.2707 74.5202 31.1827 74.8135 31.1827 75.146C31.1827 75.4981 31.2707 75.8013 31.4468 76.0555C31.6228 76.3098 31.8673 76.4956 32.1802 76.613C32.4932 76.7303 32.855 76.789 33.2657 76.789ZM41.6519 79.6055V58.4819H45.7593V79.6055H41.6519ZM46.683 79.6055V58.4819H50.7903V79.6055H46.683ZM58.8432 79.9575C57.3568 79.9575 56.0365 79.6446 54.8826 79.0187C53.7482 78.3733 52.8582 77.4833 52.2128 76.3489C51.5673 75.1949 51.2446 73.8649 51.2446 72.3589C51.2446 70.8333 51.5576 69.4838 52.1834 68.3102C52.8289 67.1171 53.7188 66.1783 54.8532 65.4937C56.0072 64.8092 57.347 64.4669 58.8726 64.4669C60.3395 64.4669 61.6206 64.7896 62.7159 65.4351C63.8308 66.0805 64.6913 66.9509 65.2977 68.0462C65.9236 69.1415 66.2365 70.403 66.2365 71.8308C66.2365 72.0264 66.2267 72.2416 66.2072 72.4763C66.2072 72.711 66.1876 72.9652 66.1485 73.2391H54.1785V70.7453H62.0705C62.0118 69.8456 61.6793 69.1317 61.073 68.6036C60.4862 68.056 59.7527 67.7821 58.8726 67.7821C58.2076 67.7821 57.6013 67.9386 57.0536 68.2515C56.506 68.5645 56.0757 69.0241 55.7627 69.6304C55.4498 70.2368 55.2933 71.0093 55.2933 71.9482V72.799C55.2933 73.5618 55.44 74.2366 55.7334 74.8233C56.0268 75.3905 56.4375 75.8306 56.9656 76.1435C57.4937 76.4565 58.1098 76.613 58.8139 76.613C59.518 76.613 60.095 76.4663 60.5449 76.1729C61.0143 75.8795 61.3663 75.4981 61.601 75.0287H65.7964C65.5226 75.948 65.0532 76.7792 64.3882 77.5224C63.7427 78.2657 62.9506 78.8622 62.0118 79.3121C61.073 79.7424 60.0168 79.9575 58.8432 79.9575ZM73.1195 79.6055C72.0634 79.6055 71.1343 79.4392 70.3324 79.1067C69.55 78.7742 68.9437 78.2266 68.5134 77.4638C68.0831 76.701 67.868 75.6644 67.868 74.3539V68.2515H65.3155V64.819H67.868L68.3081 60.7409H71.9753V64.819H75.8187V68.2515H71.9753V74.3833C71.9753 75.0287 72.1123 75.4785 72.3861 75.7328C72.6795 75.9871 73.1684 76.1142 73.853 76.1142H75.7893V79.6055H73.1195ZM84.3252 79.6055L78.9563 59.0687H83.357L86.8189 74.97L90.985 59.0687H95.5031L99.5224 74.97L103.043 59.0687H107.473L101.957 79.6055H97.058L93.1853 64.8483L89.1953 79.6055H84.3252ZM110.462 79.9575C109.249 79.9575 108.232 79.7619 107.411 79.3708C106.609 78.96 106.012 78.4222 105.621 77.7572C105.249 77.0726 105.063 76.3196 105.063 75.4981C105.063 74.618 105.288 73.8356 105.738 73.151C106.188 72.4665 106.882 71.9286 107.821 71.5374C108.76 71.1463 109.934 70.9507 111.342 70.9507H114.98C114.98 70.2465 114.882 69.6696 114.686 69.2197C114.51 68.7503 114.217 68.3982 113.806 68.1635C113.415 67.9288 112.887 67.8115 112.222 67.8115C111.498 67.8115 110.882 67.9679 110.374 68.2809C109.885 68.5938 109.582 69.0632 109.464 69.6891H105.474C105.592 68.6329 105.944 67.7235 106.53 66.9607C107.117 66.1783 107.899 65.572 108.877 65.1417C109.875 64.6918 111 64.4669 112.251 64.4669C113.64 64.4669 114.843 64.7016 115.86 65.171C116.897 65.6404 117.689 66.3152 118.236 67.1954C118.804 68.0755 119.087 69.161 119.087 70.4519V79.6055H115.625L115.156 77.3758C114.96 77.7669 114.706 78.119 114.393 78.4319C114.1 78.7449 113.757 79.0187 113.366 79.2534C112.975 79.4686 112.535 79.6348 112.046 79.7522C111.577 79.8891 111.048 79.9575 110.462 79.9575ZM111.459 76.789C111.948 76.789 112.388 76.7108 112.779 76.5543C113.171 76.3783 113.503 76.1338 113.777 75.8208C114.051 75.5079 114.276 75.1558 114.452 74.7646C114.628 74.3539 114.745 73.9138 114.804 73.4444V73.4151H111.841C111.273 73.4151 110.804 73.4933 110.432 73.6498C110.08 73.7867 109.816 73.9921 109.64 74.2659C109.464 74.5202 109.376 74.8135 109.376 75.146C109.376 75.4981 109.464 75.8013 109.64 76.0555C109.816 76.3098 110.061 76.4956 110.374 76.613C110.687 76.7303 111.048 76.789 111.459 76.789ZM123.346 79.6055L117.977 64.819H122.29L125.869 75.7328L129.478 64.819H133.732L128.363 79.6055H123.346ZM139.655 79.9575C138.169 79.9575 136.849 79.6446 135.695 79.0187C134.56 78.3733 133.67 77.4833 133.025 76.3489C132.379 75.1949 132.057 73.8649 132.057 72.3589C132.057 70.8333 132.37 69.4838 132.996 68.3102C133.641 67.1171 134.531 66.1783 135.665 65.4937C136.819 64.8092 138.159 64.4669 139.685 64.4669C141.152 64.4669 142.433 64.7896 143.528 65.4351C144.643 66.0805 145.503 66.9509 146.11 68.0462C146.736 69.1415 147.049 70.403 147.049 71.8308C147.049 72.0264 147.039 72.2416 147.019 72.4763C147.019 72.711 147 72.9652 146.961 73.2391H134.991V70.7453H142.883C142.824 69.8456 142.491 69.1317 141.885 68.6036C141.298 68.056 140.565 67.7821 139.685 67.7821C139.02 67.7821 138.413 67.9386 137.866 68.2515C137.318 68.5645 136.888 69.0241 136.575 69.6304C136.262 70.2368 136.105 71.0093 136.105 71.9482V72.799C136.105 73.5618 136.252 74.2366 136.546 74.8233C136.839 75.3905 137.25 75.8306 137.778 76.1435C138.306 76.4565 138.922 76.613 139.626 76.613C140.33 76.613 140.907 76.4663 141.357 76.1729C141.826 75.8795 142.178 75.4981 142.413 75.0287H146.609C146.335 75.948 145.865 76.7792 145.2 77.5224C144.555 78.2657 143.763 78.8622 142.824 79.3121C141.885 79.7424 140.829 79.9575 139.655 79.9575Z" fill="#06509F"/>
</svg>
