<svg width="132" height="51" viewBox="0 0 132 51" fill="none" xmlns="http://www.w3.org/2000/svg">
<path d="M66.3876 8C70.4129 8 72.1339 10.9382 72.1339 13.8523C72.1339 16.7663 70.4129 19.7045 66.3876 19.7045H62.2298V26.2437H59V8H66.3876ZM66.2286 16.7904C68.1351 16.7904 68.9016 15.3346 68.9016 13.8523C68.9016 12.3699 68.1592 10.8876 66.3057 10.8876H62.2274V16.7929H66.2261L66.2286 16.7904Z" fill="#2463EB"/>
<path d="M83.6793 13.8785H86.7501V26.2435H83.6793V24.3104C82.8574 25.6602 81.216 26.5616 79.442 26.5616C76.1326 26.5616 73.4836 23.8886 73.4836 20.0489C73.4836 16.2093 76.0241 13.5627 79.5191 13.5627C81.2136 13.5627 82.855 14.3051 83.6769 15.6019V13.8809L83.6793 13.8785ZM83.6263 20.0465C83.6263 17.9278 81.8788 16.419 80.0518 16.419C78.0657 16.419 76.5568 18.0604 76.5568 20.0465C76.5568 22.0326 78.0657 23.7006 80.0783 23.7006C81.9849 23.7006 83.6263 22.1122 83.6263 20.0465Z" fill="#2463EB"/>
<path d="M98.5607 13.8789H101.87L94.1908 32.2793H90.961L93.7401 25.3689L88.8158 13.8789H92.1782L95.3815 21.7149L98.5583 13.8789H98.5607Z" fill="#2463EB"/>
<path d="M42.2948 25.0652C42.3044 24.9567 42.3141 24.8507 42.3237 24.7422C42.3165 24.8507 42.3069 24.9591 42.2972 25.0676H42.2948V25.0652Z" fill="#383838"/>
<path d="M42.3357 22.3486C42.3333 22.2955 42.3284 22.2449 42.3236 22.1919H42.326C42.3284 22.2425 42.3333 22.2955 42.3357 22.3486Z" fill="#383838"/>
<path d="M24.2734 29.2428C24.2734 31.8048 22.5211 34.551 18.424 34.551H10.5021V15.9832H17.8607C21.1738 15.9832 23.3052 17.9784 23.3052 20.7797C23.3052 22.1528 22.7678 24.0155 20.7431 24.6339C23.1138 25.0388 24.2734 27.1408 24.2734 29.2428ZM17.6436 19.2999H14.2495V23.3676H17.6436C18.8289 23.3676 19.5578 22.5872 19.5578 21.3209C19.5578 20.1907 18.9651 19.2999 17.6436 19.2999ZM17.8865 31.2379C19.6388 31.2379 20.5001 30.1041 20.5001 28.8673C20.5001 27.7077 19.7197 26.4966 17.9381 26.4966H14.2458V31.2416H17.8828L17.8865 31.2379Z" fill="#2463EB"/>
<path d="M40.6583 34.5544H35.8065L29.8246 27.089V34.5544H26.0771V15.9866H29.8246V23.5845L35.0003 15.9866H39.4987L36.9992 19.5684L35.2617 22.0495L33.0603 25.2042L35.5194 28.2338L37.4115 30.5603L40.6583 34.5544Z" fill="#2463EB"/>
<path d="M0.6698 30.8668C3.28922 41.9218 13.2395 50.1721 25.0857 50.1721C37.6696 50.1721 48.1187 40.8562 49.9007 28.7605C49.9577 28.4006 50.0004 28.0371 50.0396 27.67C50.086 27.1996 50.1216 26.7256 50.143 26.248C50.1608 25.8631 50.1715 25.4747 50.1715 25.0862C50.1715 24.2772 50.1359 23.4789 50.061 22.6877L43.9918 28.7605H46.654C44.9113 39.0957 35.9162 46.9646 25.0857 46.9646C15.0036 46.9646 6.51449 40.147 3.98061 30.8668H0.6698Z" fill="#2463EB"/>
<path d="M0 25.0716C0 25.2747 0.00356384 25.4743 0.00712768 25.6775C0.0106915 25.877 0.0178192 26.0766 0.0285107 26.2762C0.0320745 26.3546 0.0356384 26.433 0.0392022 26.5078C0.0498937 26.6718 0.0570214 26.8286 0.0712768 26.9889C0.0855321 27.1493 0.0997875 27.3061 0.114043 27.4665L6.1797 21.3973H3.51751C5.27092 11.0728 14.2589 3.20745 25.0859 3.20745C35.168 3.20745 43.657 10.0286 46.1909 19.3053H49.5017C46.8823 8.25028 36.9285 0 25.0859 0C12.5055 0 2.0599 9.30875 0.270852 21.3973C0.245905 21.5648 0.220958 21.7287 0.203139 21.8962C0.178192 22.0922 0.153245 22.2882 0.131862 22.4878C0.128298 22.527 0.124734 22.5698 0.12117 22.609C0.103351 22.7907 0.0855321 22.9725 0.0748406 23.1578C0.0712768 23.1756 0.0712768 23.197 0.0712768 23.2184C0.0641491 23.2968 0.0570214 23.3717 0.0534576 23.4501C0.0463299 23.557 0.0392022 23.6639 0.0356384 23.7708C0.0249469 23.9347 0.0178192 24.0987 0.0142554 24.2626C0.00356384 24.5299 0 24.8008 0 25.0716Z" fill="#2463EB"/>
<path d="M0.114055 27.4668C0.0997998 27.3064 0.0855444 27.1496 0.0712891 26.9893C0.0819806 27.1496 0.0962359 27.31 0.110491 27.4704H0.114055V27.4668Z" fill="#2463EB"/>
<path d="M0.0533447 23.4502C0.0569086 23.3718 0.0640362 23.2969 0.0711639 23.2185H0.0676001C0.0640362 23.2933 0.0569086 23.3718 0.0533447 23.4502Z" fill="#2463EB"/>
<path d="M56.049 41.547L58.458 36.421H59.668L60.592 44H59.184L58.601 38.951L56.621 43.142H55.499L53.508 38.951L52.914 44H51.506L52.441 36.421H53.629L56.049 41.547ZM65.0244 44V36.421H69.7104V37.675H66.4214V39.644H69.3034V40.887H66.4214V42.746H69.8204V44H65.0244ZM77.2593 37.675H75.6973V40.051H77.2153C77.9633 40.051 78.2823 39.435 78.2823 38.874C78.2823 38.324 77.9633 37.675 77.2593 37.675ZM77.8203 41.25L79.7563 44H78.0623L76.2803 41.305H75.6973V44H74.2893V36.421H77.3253C78.9973 36.421 79.7453 37.642 79.7453 38.874C79.7453 39.952 79.1733 41.041 77.8203 41.25ZM89.5228 41.756L90.6338 42.57C89.9738 43.505 88.8738 44.11 87.5538 44.11C85.3978 44.11 83.7368 42.361 83.7368 40.227C83.7368 38.082 85.3978 36.333 87.5538 36.333C88.8408 36.333 89.9408 36.905 90.6008 37.829L89.4788 38.632C89.0388 38.06 88.3568 37.664 87.5538 37.664C86.1788 37.664 85.1448 38.819 85.1448 40.227C85.1448 41.646 86.1788 42.779 87.5538 42.779C88.3788 42.779 89.0828 42.372 89.5228 41.756ZM99.2287 36.421H100.648V44H99.2287V40.865H96.1927V44H94.7957V36.421H96.1927V39.6H99.2287V36.421ZM110.274 44L109.581 42.163H106.754L106.061 44H104.565L107.403 36.421H108.921L111.759 44H110.274ZM108.162 38.038L107.227 40.931H109.119L108.162 38.038ZM121.288 36.421V44H120.001L117.075 39.017V44H115.678V36.421H116.987L119.88 41.349V36.421H121.288ZM125.508 37.708V36.421H131.195V37.708H129.061V44H127.642V37.708H125.508Z" fill="#2463EB"/>
</svg>
