<svg width="102" height="51" viewBox="0 0 102 51" fill="none" xmlns="http://www.w3.org/2000/svg">
<path d="M66.0659 15.9829C70.0911 15.9829 71.8121 18.9211 71.8121 21.8352C71.8121 24.7493 70.0911 27.6874 66.0659 27.6874H61.9081V34.2266H58.6782V15.9829H66.0659ZM65.9068 24.7734C67.8133 24.7734 68.5798 23.3175 68.5798 21.8352C68.5798 20.3528 67.8375 18.8705 65.9839 18.8705H61.9056V24.7758H65.9044L65.9068 24.7734Z" fill="#2463EB"/>
<path d="M83.3573 21.8614H86.428V34.2264H83.3573V32.2933C82.5354 33.6431 80.8939 34.5445 79.1199 34.5445C75.8106 34.5445 73.1616 31.8715 73.1616 28.0318C73.1616 24.1922 75.7021 21.5457 79.1971 21.5457C80.8915 21.5457 82.533 22.288 83.3549 23.5848V21.8638L83.3573 21.8614ZM83.3043 28.0294C83.3043 25.9107 81.5568 24.4019 79.7298 24.4019C77.7436 24.4019 76.2348 26.0433 76.2348 28.0294C76.2348 30.0155 77.7436 31.6835 79.7563 31.6835C81.6628 31.6835 83.3043 30.0951 83.3043 28.0294Z" fill="#2463EB"/>
<path d="M98.2391 21.8618H101.548L93.8692 40.2622H90.6393L93.4184 33.3518L88.4941 21.8618H91.8565L95.0599 29.6978L98.2367 21.8618H98.2391Z" fill="#2463EB"/>
<path d="M47.2949 27.0652C47.3046 26.9567 47.3142 26.8507 47.3238 26.7422C47.3166 26.8507 47.307 26.9591 47.2973 27.0676H47.2949V27.0652Z" fill="#383838"/>
<path d="M47.3358 24.3486C47.3334 24.2955 47.3286 24.2449 47.3237 24.1919H47.3261C47.3285 24.2425 47.3334 24.2955 47.3358 24.3486Z" fill="#383838"/>
<path d="M24.2732 29.2428C24.2732 31.8048 22.521 34.551 18.4238 34.551H10.502V15.9832H17.8606C21.1737 15.9832 23.3051 17.9784 23.3051 20.7797C23.3051 22.1528 22.7676 24.0155 20.743 24.6339C23.1137 25.0388 24.2732 27.1408 24.2732 29.2428ZM17.6434 19.2999H14.2494V23.3676H17.6434C18.8288 23.3676 19.5576 22.5872 19.5576 21.3209C19.5576 20.1907 18.965 19.2999 17.6434 19.2999ZM17.8864 31.2379C19.6386 31.2379 20.5 30.1041 20.5 28.8673C20.5 27.7077 19.7196 26.4966 17.9379 26.4966H14.2457V31.2416H17.8827L17.8864 31.2379Z" fill="#2463EB"/>
<path d="M40.6583 34.5544H35.8065L29.8246 27.089V34.5544H26.0771V15.9866H29.8246V23.5845L35.0003 15.9866H39.4987L36.9992 19.5684L35.2617 22.0495L33.0603 25.2042L35.5194 28.2338L37.4115 30.5603L40.6583 34.5544Z" fill="#2463EB"/>
<path d="M0.669922 30.8668C3.28934 41.9218 13.2396 50.1721 25.0858 50.1721C37.6697 50.1721 48.1189 40.8562 49.9008 28.7605C49.9578 28.4006 50.0006 28.0371 50.0398 27.67C50.0861 27.1996 50.1217 26.7256 50.1431 26.248C50.1609 25.8631 50.1716 25.4747 50.1716 25.0862C50.1716 24.2772 50.136 23.4789 50.0612 22.6877L43.9919 28.7605H46.6541C44.9114 39.0957 35.9163 46.9646 25.0858 46.9646C15.0037 46.9646 6.51462 40.147 3.98073 30.8668H0.669922Z" fill="#2463EB"/>
<path d="M0 25.0716C0 25.2747 0.00356384 25.4743 0.00712768 25.6775C0.0106915 25.877 0.0178192 26.0766 0.0285107 26.2762C0.0320745 26.3546 0.0356384 26.433 0.0392022 26.5078C0.0498937 26.6718 0.0570214 26.8286 0.0712768 26.9889C0.0855321 27.1493 0.0997875 27.3061 0.114043 27.4665L6.1797 21.3973H3.51751C5.27092 11.0728 14.2589 3.20745 25.0859 3.20745C35.168 3.20745 43.657 10.0286 46.1909 19.3053H49.5017C46.8823 8.25028 36.9285 0 25.0859 0C12.5055 0 2.0599 9.30875 0.270852 21.3973C0.245905 21.5648 0.220958 21.7287 0.203139 21.8962C0.178192 22.0922 0.153245 22.2882 0.131862 22.4878C0.128298 22.527 0.124734 22.5698 0.12117 22.609C0.103351 22.7907 0.0855321 22.9725 0.0748406 23.1578C0.0712768 23.1756 0.0712768 23.197 0.0712768 23.2184C0.0641491 23.2968 0.0570214 23.3717 0.0534576 23.4501C0.0463299 23.557 0.0392022 23.6639 0.0356384 23.7708C0.0249469 23.9347 0.0178192 24.0987 0.0142554 24.2626C0.00356384 24.5299 0 24.8008 0 25.0716Z" fill="#2463EB"/>
<path d="M0.114055 27.4668C0.0997998 27.3064 0.0855444 27.1496 0.0712891 26.9893C0.0819806 27.1496 0.0962359 27.31 0.110491 27.4704H0.114055V27.4668Z" fill="#2463EB"/>
<path d="M0.0532227 23.4502C0.0567865 23.3718 0.0639142 23.2969 0.0710418 23.2185H0.067478C0.0639142 23.2933 0.0567865 23.3718 0.0532227 23.4502Z" fill="#2463EB"/>
</svg>
